<svg width="16" height="16" viewBox="0 0 16 16" fill="none" xmlns="http://www.w3.org/2000/svg">
<path d="M7.71027 2.5208C7.73484 2.47007 7.77319 2.4273 7.82095 2.39737C7.8687 2.36744 7.92392 2.35156 7.98027 2.35156C8.03663 2.35156 8.09185 2.36744 8.1396 2.39737C8.18735 2.4273 8.22571 2.47007 8.25027 2.5208L9.90127 5.8208C9.92356 5.86329 9.95572 5.89981 9.99504 5.9273C10.0344 5.95479 10.0797 5.97245 10.1273 5.9788L13.8133 6.5098C13.8697 6.51711 13.923 6.54034 13.9667 6.57679C14.0105 6.61323 14.043 6.66138 14.0604 6.7156C14.0778 6.76982 14.0794 6.82788 14.0651 6.88299C14.0507 6.93809 14.0209 6.98797 13.9793 7.0268L11.3183 9.5818C11.2824 9.61603 11.2557 9.65861 11.2403 9.70572C11.2249 9.75284 11.2215 9.80302 11.2303 9.8518L11.8593 13.4658C11.8698 13.5215 11.8644 13.579 11.8436 13.6317C11.8228 13.6845 11.7875 13.7302 11.7418 13.7637C11.696 13.7972 11.6418 13.817 11.5852 13.8209C11.5287 13.8249 11.4722 13.8127 11.4223 13.7858L8.11927 12.0788C8.07637 12.0564 8.02868 12.0447 7.98027 12.0447C7.93186 12.0447 7.88417 12.0564 7.84127 12.0788L4.54127 13.7918C4.49137 13.8187 4.43488 13.8309 4.37833 13.827C4.32179 13.823 4.26751 13.8032 4.22178 13.7697C4.17605 13.7362 4.14075 13.6905 4.11995 13.6377C4.09915 13.585 4.09372 13.5275 4.10427 13.4718L4.72727 9.8558C4.73604 9.80702 4.7326 9.75684 4.71724 9.70972C4.70189 9.66261 4.6751 9.62003 4.63927 9.5858L1.97927 7.0308C1.93761 6.99197 1.90785 6.94209 1.89349 6.88699C1.87913 6.83188 1.88074 6.77382 1.89815 6.7196C1.91556 6.66538 1.94804 6.61723 1.99181 6.58079C2.03557 6.54434 2.08879 6.52111 2.14527 6.5138L5.82727 5.9788C5.87559 5.97198 5.92153 5.95349 5.96108 5.92491C6.00064 5.89633 6.03263 5.85853 6.05427 5.8148L7.71027 2.5208Z" fill="#FF8C00"/>
<path fill-rule="evenodd" clip-rule="evenodd" d="M7.16999 2.25087C7.24547 2.1006 7.36123 1.97427 7.50436 1.886C7.64748 1.79772 7.81233 1.75098 7.98049 1.75098C8.14865 1.75098 8.31349 1.79772 8.45662 1.886C8.59974 1.97427 8.71551 2.1006 8.79099 2.25087L10.372 5.40787L13.902 5.91687C14.0701 5.94106 14.228 6.01194 14.3577 6.12146C14.4875 6.23097 14.5839 6.37471 14.636 6.53633C14.6881 6.69794 14.6938 6.87093 14.6524 7.03562C14.6111 7.2003 14.5243 7.35007 14.402 7.46787L11.857 9.91187L12.457 13.3669C12.4858 13.5333 12.4676 13.7045 12.4043 13.8611C12.3411 14.0177 12.2354 14.1536 12.0991 14.2533C11.9629 14.3531 11.8014 14.4129 11.633 14.4259C11.4646 14.4389 11.296 14.4046 11.146 14.3269L7.98099 12.6859L4.81599 14.3269C4.66602 14.4046 4.49734 14.4389 4.32894 14.4259C4.16054 14.4129 3.99911 14.3531 3.86284 14.2533C3.72657 14.1536 3.62087 14.0177 3.55764 13.8611C3.49442 13.7045 3.47618 13.5333 3.50499 13.3669L4.10499 9.91187L1.56099 7.46687C1.43869 7.34907 1.35192 7.1993 1.31054 7.03462C1.26917 6.86993 1.27485 6.69694 1.32695 6.53533C1.37905 6.37371 1.47547 6.22997 1.60524 6.12046C1.73501 6.01094 1.89292 5.94006 2.06099 5.91587L5.59099 5.40687L7.16999 2.25087ZM7.98099 3.33187L6.59999 6.08987C6.53444 6.22053 6.43829 6.33341 6.31972 6.4189C6.20115 6.50439 6.06366 6.55996 5.91899 6.58087L2.84599 7.02387L5.05999 9.14987C5.16698 9.25274 5.24709 9.38029 5.2933 9.52134C5.3395 9.6624 5.35038 9.81263 5.32499 9.95887L4.80099 12.9749L7.56299 11.5409C7.69197 11.4739 7.83516 11.4389 7.98049 11.4389C8.12582 11.4389 8.26901 11.4739 8.39799 11.5409L11.161 12.9749L10.637 9.96187C10.6116 9.81563 10.6225 9.6654 10.6687 9.52434C10.7149 9.38329 10.795 9.25574 10.902 9.15287L13.116 7.02687L10.043 6.58087C9.89831 6.55996 9.76083 6.50439 9.64226 6.4189C9.52369 6.33341 9.42753 6.22053 9.36199 6.08987L7.98099 3.33187Z" fill="#FF8C00"/>
</svg>
