<svg width="16" height="16" viewBox="0 0 16 16" fill="none" xmlns="http://www.w3.org/2000/svg">
<path d="M7.71027 2.52104C7.73484 2.47032 7.77319 2.42754 7.82095 2.39761C7.8687 2.36768 7.92392 2.35181 7.98027 2.35181C8.03663 2.35181 8.09185 2.36768 8.1396 2.39761C8.18735 2.42754 8.22571 2.47032 8.25027 2.52104L9.90127 5.82104C9.92356 5.86353 9.95572 5.90005 9.99504 5.92755C10.0344 5.95504 10.0797 5.9727 10.1273 5.97904L13.8133 6.51004C13.8697 6.51735 13.923 6.54059 13.9667 6.57703C14.0105 6.61347 14.043 6.66162 14.0604 6.71584C14.0778 6.77007 14.0794 6.82812 14.0651 6.88323C14.0507 6.93834 14.0209 6.98822 13.9793 7.02704L11.3183 9.58204C11.2824 9.61628 11.2557 9.65885 11.2403 9.70597C11.2249 9.75308 11.2215 9.80327 11.2303 9.85204L11.8593 13.466C11.8698 13.5217 11.8644 13.5793 11.8436 13.632C11.8228 13.6847 11.7875 13.7305 11.7418 13.764C11.696 13.7974 11.6418 13.8173 11.5852 13.8212C11.5287 13.8251 11.4722 13.8129 11.4223 13.786L8.11927 12.079C8.07637 12.0566 8.02868 12.0449 7.98027 12.0449C7.93186 12.0449 7.88417 12.0566 7.84127 12.079L4.54127 13.792C4.49137 13.8189 4.43488 13.8311 4.37833 13.8272C4.32179 13.8233 4.26751 13.8034 4.22178 13.77C4.17605 13.7365 4.14075 13.6907 4.11995 13.638C4.09915 13.5853 4.09372 13.5277 4.10427 13.472L4.72727 9.85604C4.73604 9.80727 4.7326 9.75708 4.71724 9.70997C4.70189 9.66285 4.6751 9.62028 4.63927 9.58604L1.97927 7.03104C1.93761 6.99222 1.90785 6.94234 1.89349 6.88723C1.87913 6.83212 1.88074 6.77407 1.89815 6.71984C1.91556 6.66562 1.94804 6.61747 1.99181 6.58103C2.03557 6.54459 2.08879 6.52135 2.14527 6.51404L5.82727 5.97904C5.87559 5.97223 5.92153 5.95373 5.96108 5.92515C6.00064 5.89657 6.03263 5.85878 6.05427 5.81504L7.71027 2.52104Z" fill="#EEEEEE"/>
<path fill-rule="evenodd" clip-rule="evenodd" d="M7.16999 2.25111C7.24547 2.10084 7.36123 1.97452 7.50436 1.88624C7.64748 1.79797 7.81233 1.75122 7.98049 1.75122C8.14865 1.75122 8.31349 1.79797 8.45662 1.88624C8.59974 1.97452 8.71551 2.10084 8.79099 2.25111L10.372 5.40811L13.902 5.91711C14.0701 5.9413 14.228 6.01219 14.3577 6.1217C14.4875 6.23121 14.5839 6.37496 14.636 6.53657C14.6881 6.69818 14.6938 6.87118 14.6524 7.03586C14.6111 7.20055 14.5243 7.35031 14.402 7.46811L11.857 9.91211L12.457 13.3671C12.4858 13.5335 12.4676 13.7047 12.4043 13.8613C12.3411 14.0179 12.2354 14.1538 12.0991 14.2536C11.9629 14.3534 11.8014 14.4131 11.633 14.4261C11.4646 14.4391 11.296 14.4048 11.146 14.3271L7.98099 12.6861L4.81599 14.3271C4.66602 14.4048 4.49734 14.4391 4.32894 14.4261C4.16054 14.4131 3.99911 14.3534 3.86284 14.2536C3.72657 14.1538 3.62087 14.0179 3.55764 13.8613C3.49442 13.7047 3.47618 13.5335 3.50499 13.3671L4.10499 9.91211L1.56099 7.46711C1.43869 7.34931 1.35192 7.19955 1.31054 7.03486C1.26917 6.87018 1.27485 6.69718 1.32695 6.53557C1.37905 6.37396 1.47547 6.23021 1.60524 6.1207C1.73501 6.01119 1.89292 5.9403 2.06099 5.91611L5.59099 5.40711L7.16999 2.25111ZM7.98099 3.33211L6.59999 6.09011C6.53444 6.22077 6.43829 6.33366 6.31972 6.41915C6.20115 6.50464 6.06366 6.5602 5.91899 6.58111L2.84599 7.02411L5.05999 9.15011C5.16698 9.25298 5.24709 9.38054 5.2933 9.52159C5.3395 9.66264 5.35038 9.81287 5.32499 9.95911L4.80099 12.9751L7.56299 11.5411C7.69197 11.4741 7.83516 11.4392 7.98049 11.4392C8.12582 11.4392 8.26901 11.4741 8.39799 11.5411L11.161 12.9751L10.637 9.96211C10.6116 9.81587 10.6225 9.66564 10.6687 9.52459C10.7149 9.38354 10.795 9.25598 10.902 9.15311L13.116 7.02711L10.043 6.58111C9.89831 6.5602 9.76083 6.50464 9.64226 6.41915C9.52369 6.33366 9.42753 6.22077 9.36199 6.09011L7.98099 3.33211Z" fill="#EEEEEE"/>
<path d="M4.39712 14.43C4.26353 14.43 4.13157 14.4006 4.0106 14.3439C3.88963 14.2873 3.78261 14.2047 3.69712 14.102C3.61126 14.0019 3.54877 13.8839 3.51418 13.7566C3.47959 13.6293 3.47376 13.4959 3.49712 13.366L4.09712 9.91102L1.56112 7.46702C1.43814 7.34943 1.35076 7.19958 1.30898 7.03464C1.26721 6.8697 1.27272 6.69633 1.3249 6.53438C1.37707 6.37242 1.4738 6.22844 1.604 6.1189C1.73421 6.00936 1.89262 5.93871 2.06112 5.91502L5.59112 5.40702L7.16912 2.25002C7.24405 2.09899 7.35989 1.97204 7.50345 1.88364C7.64702 1.79524 7.81252 1.74894 7.98112 1.75002H7.99112V12.691L7.98112 12.685L4.81512 14.326C4.68626 14.394 4.54281 14.4297 4.39712 14.43Z" fill="#EEEEEE"/>
</svg>
