<svg width="16" height="16" viewBox="0 0 16 16" fill="none" xmlns="http://www.w3.org/2000/svg">
<path d="M11.226 12.2903V11.3108C11.226 10.5176 10.8098 9.78257 10.1297 9.37449L7.83887 8L6.25823 8.94839L5.35059 11.3108V12.8034L11.226 12.2903Z" fill="#F9F7F7"/>
<path d="M6.25761 12.2904V8.94849L5.54747 9.37458C4.86734 9.78266 4.45117 10.5177 4.45117 11.3109V12.2904H6.25761Z" fill="#F9F7F7"/>
<path d="M5.20508 1.45166V4.6893C5.20508 5.48249 5.62125 6.21749 6.30137 6.62556H9.30664L10.8299 5.96778C11.085 5.59706 11.2263 5.15398 11.2263 4.68927V2.35488L5.20508 1.45166Z" fill="#F9F7F7"/>
<path d="M4.45117 1.45166V4.6893C4.45117 5.15327 4.59358 5.59733 4.8479 5.96773L6.25761 6.42779V3.03232C6.25761 2.6582 6.56091 2.35491 6.93502 2.35491H11.2253V1.45166H4.45117Z" fill="#F9F7F7"/>
<path d="M8.34643 11.1389C8.17496 11.0704 8.0637 10.9048 8.0637 10.7201V8.12025C8.0637 7.96163 8.14693 7.8146 8.28297 7.733L10.1287 6.62555C10.4102 6.45665 10.6484 6.22962 10.8286 5.96777H6.25726L5.96484 6.32751L6.25723 7.05165L7.39282 7.733C7.52885 7.81463 7.61209 7.96163 7.61209 8.12025V10.7201C7.61209 10.9047 7.49965 11.0708 7.3282 11.1394L6.25726 11.5678L5.78711 13.9154L11.225 13.6452V12.2904C11.225 12.2904 9.1645 11.4662 8.34643 11.1389Z" fill="#D9D7D7"/>
<path d="M6.25764 12.9676V11.5676L4.45117 12.2902V14.3225H11.2254V13.6451H6.93505C6.56091 13.6451 6.25764 13.3418 6.25764 12.9676Z" fill="#D9D7D7"/>
<path d="M11.4523 14.0967H5.58127C5.45656 14.0967 5.35547 14.1978 5.35547 14.3225V14.5483C5.35547 14.673 5.45656 14.7741 5.58127 14.7741H11.4523C11.5769 14.7741 11.6781 14.673 11.6781 14.5483V14.3225C11.6781 14.1978 11.577 14.0967 11.4523 14.0967Z" fill="#D9D7D7"/>
<path d="M6.03224 14.5483C5.78281 14.5483 5.58063 14.3461 5.58063 14.0967H4.2258C4.10109 14.0967 4 14.1978 4 14.3225V14.7741C4 14.8988 4.10109 14.9999 4.2258 14.9999H11.4516C11.5763 14.9999 11.6774 14.8988 11.6774 14.7741V14.5483H6.03224Z" fill="#D9D7D7"/>
<path d="M5.54814 6.62555L6.25829 7.05165V5.96777H4.84863C5.02891 6.22964 5.26664 6.45665 5.54814 6.62555Z" fill="#D9D7D7"/>
<path d="M11.4523 1H5.58127C5.45656 1 5.35547 1.10109 5.35547 1.2258V1.45161C5.35547 1.5763 5.45656 1.67741 5.58127 1.67741H11.4523C11.5769 1.67741 11.6781 1.5763 11.6781 1.45161V1.2258C11.6781 1.10109 11.577 1 11.4523 1Z" fill="#D9D7D7"/>
<path d="M6.03224 1.45161C5.78281 1.45161 5.58063 1.2494 5.58063 1H4.2258C4.10109 1 4 1.10109 4 1.2258V1.67741C4 1.80213 4.10109 1.90322 4.2258 1.90322H11.4516C11.5763 1.90322 11.6774 1.80213 11.6774 1.67741V1.45161H6.03224Z" fill="#D9D7D7"/>
</svg>
