<svg width="16" height="16" viewBox="0 0 16 16" fill="none" xmlns="http://www.w3.org/2000/svg">
<path d="M7.66667 1C6.42902 1 5.24207 1.47016 4.36692 2.30704C3.49177 3.14393 3.00012 4.27899 3.00012 5.46253C2.97307 9.72005 7.66667 15 7.66667 15C7.66667 15 12.3603 9.72005 12.3332 5.46253C12.3332 4.27899 11.8416 3.14393 10.9664 2.30704C10.0913 1.47016 8.90431 1 7.66667 1ZM7.66667 7.35541C7.27518 7.35541 6.89248 7.24439 6.56696 7.0364C6.24145 6.82841 5.98774 6.53278 5.83792 6.1869C5.68811 5.84102 5.64891 5.46043 5.72528 5.09325C5.80166 4.72607 5.99018 4.38879 6.26701 4.12406C6.54383 3.85934 6.89653 3.67906 7.2805 3.60602C7.66447 3.53299 8.06247 3.57047 8.42416 3.71374C8.78585 3.85701 9.09499 4.09962 9.31249 4.4109C9.52999 4.72219 9.64608 5.08815 9.64608 5.46253C9.64608 5.96455 9.43754 6.44601 9.06633 6.801C8.69511 7.15598 8.19164 7.35541 7.66667 7.35541Z" fill="#DADADA"/>
</svg>
