<svg width="16" height="16" viewBox="0 0 16 16" fill="none" xmlns="http://www.w3.org/2000/svg">
<path d="M15.1249 8.00004C15.125 7.70444 14.8853 7.46483 14.5898 7.46483C14.2942 7.46483 14.0546 7.70444 14.0546 7.99999C14.0546 11.3384 11.3384 14.0546 7.99999 14.0546C4.66155 14.0546 1.94534 11.3384 1.94534 7.99999C1.94534 4.66154 4.66155 1.94533 7.99999 1.94533C8.96155 1.94533 9.89807 2.17077 10.7437 2.60142L12.8965 0.915767C12.6965 0.832898 12.4663 0.878705 12.3133 1.03181L11.5332 1.81187C10.4601 1.19785 9.2475 0.875053 7.99996 0.875053C6.09705 0.875053 4.30739 1.61636 2.96184 2.96189L2.96183 2.96189C1.61627 4.30748 0.875 6.09711 0.875 8.00001C0.875 9.90292 1.61627 11.6926 2.96183 13.0381C4.30742 14.3837 6.09705 15.125 7.99996 15.125C9.90287 15.125 11.6925 14.3837 13.0381 13.0381C14.3836 11.6926 15.1249 9.90295 15.1249 8.00004ZM15.1249 8.00004L14.9999 8.00001L15.1249 8.00004Z" fill="#D9D7D7" stroke="#D9D7D7" stroke-width="0.25"/>
<path d="M10.1164 8.24139H8.01562V6.14062C8.01562 5.84507 7.77602 5.60547 7.48047 5.60547C7.18492 5.60547 6.94531 5.84507 6.94531 6.14062V8.77655C6.94531 9.0721 7.18492 9.3117 7.48047 9.3117H10.1164C10.4119 9.3117 10.6515 9.0721 10.6515 8.77655C10.6515 8.481 10.4119 8.24139 10.1164 8.24139Z" fill="#D9D7D7" stroke="#D9D7D7" stroke-width="0.25"/>
</svg>
