<svg width="46" height="62" viewBox="0 0 46 62" fill="none" xmlns="http://www.w3.org/2000/svg">
<path d="M28.0362 44.9937C38.1627 42.7306 45.4365 33.6991 45.4365 23.2456C45.4365 17.2928 43.1178 11.6952 38.9086 7.4858C34.6994 3.27664 29.1017 0.958008 23.1489 0.958008C17.1961 0.958008 11.5984 3.27664 7.38922 7.4858L7.56599 7.66258L7.38922 7.4858C3.17996 11.6952 0.861328 17.2928 0.861328 23.2456C0.861328 33.6991 8.13511 42.7307 18.2616 44.9938L22.9101 59.9751L23.1489 60.7447L23.3877 59.9751L28.0362 44.9937ZM23.1489 7.21118C31.9363 7.21118 39.0858 14.3607 39.0858 23.1481C39.0858 31.9354 31.9363 39.0849 23.1489 39.0849C14.3615 39.0849 7.21201 31.9354 7.21201 23.1481C7.21201 14.3607 14.3615 7.21118 23.1489 7.21118Z" fill="#EC4242" stroke="white" stroke-width="0.5"/>
</svg>
