<svg width="38" height="38" viewBox="0 0 38 38" fill="none" xmlns="http://www.w3.org/2000/svg">
<path d="M36.2785 17.4019H31.3247C30.6494 11.6663 26.087 7.10388 20.3514 6.42853V1.47474C20.3514 0.66024 19.6911 0 18.8766 0C18.0621 0 17.4019 0.66024 17.4019 1.47474V6.42853C11.6663 7.10388 7.10388 11.6663 6.42853 17.4019H1.47474C0.66024 17.4019 0 18.0621 0 18.8766C0 19.6911 0.66024 20.3514 1.47474 20.3514H6.42853C7.10388 26.087 11.6663 30.6494 17.4019 31.3247V36.2785C17.4019 37.093 18.0621 37.7533 18.8766 37.7533C19.6911 37.7533 20.3514 37.093 20.3514 36.2785V31.3247C26.087 30.6495 30.6494 26.087 31.3247 20.3514H36.2785C37.093 20.3514 37.7533 19.6911 37.7533 18.8766C37.7533 18.0621 37.093 17.4019 36.2785 17.4019ZM18.8766 28.4624C13.591 28.4624 9.29084 24.1622 9.29084 18.8766C9.29084 13.591 13.591 9.29084 18.8766 9.29084C24.1623 9.29084 28.4624 13.591 28.4624 18.8766C28.4624 24.1622 24.1623 28.4624 18.8766 28.4624Z" fill="#008BDC"/>
<circle cx="18.8774" cy="18.8766" r="4.71916" fill="#008BDC"/>
</svg>
