<svg width="16" height="16" viewBox="0 0 16 16" fill="none" xmlns="http://www.w3.org/2000/svg">
<path d="M15.291 10.2965C15.291 8.10492 13.8237 6.25057 11.8204 5.66254H12.3162C13.087 5.66254 13.7139 5.03562 13.7139 4.26482C13.7139 3.49401 13.087 2.86709 12.3162 2.86709H10.3161C10.4013 2.68665 10.4491 2.48513 10.4491 2.27272C10.4491 1.50192 9.82217 0.875 9.05137 0.875H2.27272C1.50192 0.875 0.875 1.50192 0.875 2.27272C0.875 3.04353 1.50192 3.67045 2.27272 3.67045H4.27276C4.18758 3.8509 4.13982 4.05241 4.13982 4.26482C4.13982 4.47721 4.18756 4.67873 4.27275 4.85918H3.76679C2.99599 4.85918 2.36907 5.4861 2.36907 6.25691C2.36907 6.64677 2.5297 6.99951 2.78755 7.25295C2.5297 7.50639 2.36907 7.85913 2.36907 8.249C2.36907 8.63886 2.5297 8.9916 2.78755 9.24504C2.5297 9.49849 2.36907 9.85122 2.36907 10.2411C2.36907 10.631 2.5297 10.9837 2.78755 11.2371C2.5297 11.4906 2.36907 11.8433 2.36907 12.2332C2.36907 13.004 2.99599 13.6309 3.76679 13.6309H6.97362C7.85305 14.5507 9.09183 15.125 10.4625 15.125C13.125 15.125 15.291 12.959 15.291 10.2965ZM12.3162 3.67045C12.6438 3.67045 12.9105 3.9372 12.9105 4.26482C12.9105 4.59243 12.6438 4.85918 12.3162 4.85918H10.5454H5.53754C5.2099 4.85918 4.94317 4.59243 4.94317 4.26482C4.94317 3.9372 5.2099 3.67045 5.53754 3.67045H12.3162ZM2.27272 2.86709C1.94509 2.86709 1.67836 2.60034 1.67836 2.27272C1.67836 1.94511 1.94509 1.67836 2.27272 1.67836H9.05137C9.379 1.67836 9.64573 1.94511 9.64573 2.27272C9.64573 2.60034 9.379 2.86709 9.05137 2.86709H2.27272ZM3.76679 5.66254H9.10362C8.33275 5.88898 7.64137 6.30296 7.08256 6.85127H3.76679C3.43918 6.85127 3.17243 6.58452 3.17243 6.25691C3.17243 5.92929 3.43918 5.66254 3.76679 5.66254ZM3.76679 7.65463H6.42273C6.18327 8.01959 5.99187 8.41883 5.85762 8.84336H3.76679C3.43915 8.84336 3.17243 8.57664 3.17243 8.249C3.17243 7.92138 3.43916 7.65463 3.76679 7.65463ZM3.76679 9.64672H5.6778C5.64899 9.85925 5.63391 10.0761 5.63391 10.2965C5.63391 10.4787 5.64429 10.6585 5.66413 10.8355H3.76679C3.43915 10.8355 3.17243 10.5687 3.17243 10.2411C3.17243 9.91345 3.43915 9.64672 3.76679 9.64672ZM3.76679 12.8275C3.43915 12.8275 3.17243 12.5608 3.17243 12.2332C3.17243 11.9055 3.43915 11.6388 3.76679 11.6388H5.82408C5.94667 12.0618 6.12559 12.4609 6.35217 12.8275H3.76679ZM10.4625 14.3216C8.24308 14.3216 6.43727 12.5158 6.43727 10.2965C6.43727 8.07707 8.24308 6.27126 10.4625 6.27126C12.6818 6.27126 14.4876 8.07707 14.4876 10.2965C14.4876 12.5158 12.6818 14.3216 10.4625 14.3216Z" fill="#D9D7D7" stroke="#D9D7D7" stroke-width="0.25"/>
</svg>
